<svg width="122" height="31" viewBox="0 0 122 31" fill="none" xmlns="http://www.w3.org/2000/svg">
<path d="M0 5C0 2.23858 2.23858 0 5 0H122V31H5C2.23858 31 0 28.7614 0 26V5Z" fill="#212020"/>
<path d="M29.1562 20.417C29.1562 21.2243 28.9707 21.8737 28.5996 22.3652C28.2285 22.8535 27.7305 23.0977 27.1055 23.0977C26.4382 23.0977 25.9222 22.8617 25.5576 22.3896L25.5137 23H24.6836V15.5H25.5869V18.2979C25.9515 17.8454 26.4544 17.6191 27.0957 17.6191C27.737 17.6191 28.2399 17.8617 28.6045 18.3467C28.9723 18.8317 29.1562 19.4958 29.1562 20.3389V20.417ZM28.2529 20.3145C28.2529 19.6992 28.1341 19.224 27.8965 18.8887C27.6589 18.5534 27.3171 18.3857 26.8711 18.3857C26.2754 18.3857 25.8473 18.6624 25.5869 19.2158V21.501C25.8636 22.0544 26.2949 22.3311 26.8809 22.3311C27.3138 22.3311 27.6507 22.1634 27.8916 21.8281C28.1325 21.4928 28.2529 20.9883 28.2529 20.3145ZM31.9688 21.6768L33.1992 17.7168H34.166L32.042 23.8154C31.7132 24.6943 31.1908 25.1338 30.4746 25.1338L30.3037 25.1191L29.9668 25.0557V24.3232L30.2109 24.3428C30.5169 24.3428 30.7546 24.2809 30.9238 24.1572C31.0964 24.0335 31.238 23.8073 31.3486 23.4785L31.5488 22.9414L29.6641 17.7168H30.6504L31.9688 21.6768ZM40.0107 18.5273C39.874 18.5046 39.7259 18.4932 39.5664 18.4932C38.974 18.4932 38.5719 18.7454 38.3604 19.25V23H37.457V17.7168H38.3359L38.3506 18.3271C38.6468 17.8551 39.0667 17.6191 39.6104 17.6191C39.7861 17.6191 39.9196 17.6419 40.0107 17.6875V18.5273ZM40.5088 20.3096C40.5088 19.792 40.6097 19.3265 40.8115 18.9131C41.0166 18.4997 41.2998 18.1807 41.6611 17.9561C42.0257 17.7314 42.4408 17.6191 42.9062 17.6191C43.6257 17.6191 44.2067 17.8682 44.6494 18.3662C45.0954 18.8643 45.3184 19.5267 45.3184 20.3535V20.417C45.3184 20.9313 45.2191 21.3936 45.0205 21.8037C44.8252 22.2106 44.5436 22.528 44.1758 22.7559C43.8112 22.9837 43.3913 23.0977 42.916 23.0977C42.1999 23.0977 41.6188 22.8486 41.1729 22.3506C40.7301 21.8525 40.5088 21.1934 40.5088 20.373V20.3096ZM41.417 20.417C41.417 21.0029 41.5521 21.4733 41.8223 21.8281C42.0957 22.1829 42.4603 22.3604 42.916 22.3604C43.375 22.3604 43.7396 22.1813 44.0098 21.8232C44.2799 21.4619 44.415 20.9574 44.415 20.3096C44.415 19.7301 44.2767 19.2614 44 18.9033C43.7266 18.542 43.362 18.3613 42.9062 18.3613C42.4603 18.3613 42.1006 18.5387 41.8271 18.8936C41.5537 19.2484 41.417 19.7562 41.417 20.417ZM47.3008 17.7168L47.3252 18.3027C47.7126 17.847 48.235 17.6191 48.8926 17.6191C49.6315 17.6191 50.1344 17.9023 50.4014 18.4688C50.5771 18.2148 50.805 18.0098 51.085 17.8535C51.3682 17.6973 51.7018 17.6191 52.0859 17.6191C53.2448 17.6191 53.834 18.2327 53.8535 19.46V23H52.9502V19.5137C52.9502 19.1361 52.8639 18.8545 52.6914 18.6689C52.5189 18.4801 52.2292 18.3857 51.8223 18.3857C51.487 18.3857 51.2087 18.4867 50.9873 18.6885C50.766 18.887 50.6374 19.1556 50.6016 19.4941V23H49.6934V19.5381C49.6934 18.7699 49.3174 18.3857 48.5654 18.3857C47.973 18.3857 47.5677 18.638 47.3496 19.1426V23H46.4463V17.7168H47.3008ZM58.4824 23C58.4303 22.8958 58.388 22.7103 58.3555 22.4434C57.9355 22.8796 57.4342 23.0977 56.8516 23.0977C56.3307 23.0977 55.9027 22.9512 55.5674 22.6582C55.2354 22.362 55.0693 21.9876 55.0693 21.5352C55.0693 20.985 55.2777 20.5586 55.6943 20.2559C56.1143 19.9499 56.7035 19.7969 57.4619 19.7969H58.3408V19.3818C58.3408 19.0661 58.2464 18.8154 58.0576 18.6299C57.8688 18.4411 57.5905 18.3467 57.2227 18.3467C56.9004 18.3467 56.6302 18.4281 56.4121 18.5908C56.194 18.7536 56.085 18.9505 56.085 19.1816H55.1768C55.1768 18.918 55.2695 18.6641 55.4551 18.4199C55.6439 18.1725 55.8978 17.9772 56.2168 17.834C56.5391 17.6908 56.8923 17.6191 57.2764 17.6191C57.8851 17.6191 58.362 17.7721 58.707 18.0781C59.0521 18.3809 59.2311 18.7992 59.2441 19.333V21.7646C59.2441 22.2497 59.306 22.6354 59.4297 22.9219V23H58.4824ZM56.9834 22.3115C57.2666 22.3115 57.5352 22.2383 57.7891 22.0918C58.043 21.9453 58.2269 21.7549 58.3408 21.5205V20.4365H57.6328C56.526 20.4365 55.9727 20.7604 55.9727 21.4082C55.9727 21.6914 56.0671 21.9128 56.2559 22.0723C56.4447 22.2318 56.6872 22.3115 56.9834 22.3115ZM61.5146 17.7168L61.5439 18.3809C61.9476 17.873 62.4749 17.6191 63.126 17.6191C64.2425 17.6191 64.8057 18.249 64.8154 19.5088V23H63.9121V19.5039C63.9089 19.123 63.821 18.8415 63.6484 18.6592C63.4792 18.4769 63.2139 18.3857 62.8525 18.3857C62.5596 18.3857 62.3024 18.4639 62.0811 18.6201C61.8597 18.7764 61.6872 18.9814 61.5635 19.2354V23H60.6602V17.7168H61.5146ZM69.9863 23.7373H65.5137V23H69.9863V23.7373ZM71.915 16.4375V17.7168H72.9014V18.415H71.915V21.6914C71.915 21.903 71.959 22.0625 72.0469 22.1699C72.1348 22.2741 72.2845 22.3262 72.4961 22.3262C72.6003 22.3262 72.7435 22.3066 72.9258 22.2676V23C72.6882 23.0651 72.457 23.0977 72.2324 23.0977C71.8288 23.0977 71.5244 22.9756 71.3193 22.7314C71.1143 22.4873 71.0117 22.1406 71.0117 21.6914V18.415H70.0498V17.7168H71.0117V16.4375H71.915ZM74.9424 23H74.0391V17.7168H74.9424V23ZM73.9658 16.3154C73.9658 16.1689 74.0098 16.0452 74.0977 15.9443C74.1888 15.8434 74.3223 15.793 74.498 15.793C74.6738 15.793 74.8073 15.8434 74.8984 15.9443C74.9896 16.0452 75.0352 16.1689 75.0352 16.3154C75.0352 16.4619 74.9896 16.584 74.8984 16.6816C74.8073 16.7793 74.6738 16.8281 74.498 16.8281C74.3223 16.8281 74.1888 16.7793 74.0977 16.6816C74.0098 16.584 73.9658 16.4619 73.9658 16.3154ZM77.2422 17.7168L77.2666 18.3027C77.654 17.847 78.1764 17.6191 78.834 17.6191C79.5729 17.6191 80.0758 17.9023 80.3428 18.4688C80.5186 18.2148 80.7464 18.0098 81.0264 17.8535C81.3096 17.6973 81.6432 17.6191 82.0273 17.6191C83.1862 17.6191 83.7754 18.2327 83.7949 19.46V23H82.8916V19.5137C82.8916 19.1361 82.8053 18.8545 82.6328 18.6689C82.4603 18.4801 82.1706 18.3857 81.7637 18.3857C81.4284 18.3857 81.1501 18.4867 80.9287 18.6885C80.7074 18.887 80.5788 19.1556 80.543 19.4941V23H79.6348V19.5381C79.6348 18.7699 79.2588 18.3857 78.5068 18.3857C77.9144 18.3857 77.5091 18.638 77.291 19.1426V23H76.3877V17.7168H77.2422ZM84.9229 20.3096C84.9229 19.792 85.0238 19.3265 85.2256 18.9131C85.4307 18.4997 85.7139 18.1807 86.0752 17.9561C86.4398 17.7314 86.8548 17.6191 87.3203 17.6191C88.0397 17.6191 88.6208 17.8682 89.0635 18.3662C89.5094 18.8643 89.7324 19.5267 89.7324 20.3535V20.417C89.7324 20.9313 89.6331 21.3936 89.4346 21.8037C89.2393 22.2106 88.9577 22.528 88.5898 22.7559C88.2253 22.9837 87.8053 23.0977 87.3301 23.0977C86.6139 23.0977 86.0329 22.8486 85.5869 22.3506C85.1442 21.8525 84.9229 21.1934 84.9229 20.373V20.3096ZM85.8311 20.417C85.8311 21.0029 85.9661 21.4733 86.2363 21.8281C86.5098 22.1829 86.8743 22.3604 87.3301 22.3604C87.7891 22.3604 88.1536 22.1813 88.4238 21.8232C88.694 21.4619 88.8291 20.9574 88.8291 20.3096C88.8291 19.7301 88.6908 19.2614 88.4141 18.9033C88.1406 18.542 87.776 18.3613 87.3203 18.3613C86.8743 18.3613 86.5146 18.5387 86.2412 18.8936C85.9678 19.2484 85.8311 19.7562 85.8311 20.417ZM93.9414 21.5986C93.9414 21.3545 93.8486 21.1657 93.6631 21.0322C93.4808 20.8955 93.1602 20.7783 92.7012 20.6807C92.2454 20.583 91.8825 20.4658 91.6123 20.3291C91.3454 20.1924 91.1468 20.0296 91.0166 19.8408C90.8896 19.652 90.8262 19.4274 90.8262 19.167C90.8262 18.734 91.0085 18.3678 91.373 18.0684C91.7409 17.7689 92.2096 17.6191 92.7793 17.6191C93.3783 17.6191 93.8633 17.7738 94.2344 18.083C94.6087 18.3923 94.7959 18.7878 94.7959 19.2695H93.8877C93.8877 19.0221 93.7819 18.8089 93.5703 18.6299C93.362 18.4508 93.0983 18.3613 92.7793 18.3613C92.4505 18.3613 92.1934 18.4329 92.0078 18.5762C91.8223 18.7194 91.7295 18.9066 91.7295 19.1377C91.7295 19.3558 91.8158 19.5202 91.9883 19.6309C92.1608 19.7415 92.4717 19.8473 92.9209 19.9482C93.3734 20.0492 93.7396 20.1696 94.0195 20.3096C94.2995 20.4495 94.5062 20.6188 94.6396 20.8174C94.7764 21.0127 94.8447 21.252 94.8447 21.5352C94.8447 22.0072 94.6559 22.3864 94.2783 22.6729C93.9007 22.9561 93.4108 23.0977 92.8086 23.0977C92.3854 23.0977 92.0111 23.0228 91.6855 22.873C91.36 22.7233 91.1045 22.515 90.9189 22.248C90.7367 21.9779 90.6455 21.6865 90.6455 21.374H91.5488C91.5651 21.6768 91.6855 21.9176 91.9102 22.0967C92.138 22.2725 92.4375 22.3604 92.8086 22.3604C93.1504 22.3604 93.4238 22.292 93.6289 22.1553C93.8372 22.0153 93.9414 21.8298 93.9414 21.5986ZM98.1406 22.3604C98.4629 22.3604 98.7445 22.2627 98.9854 22.0674C99.2262 21.8721 99.3597 21.6279 99.3857 21.335H100.24C100.224 21.6377 100.12 21.9258 99.9277 22.1992C99.7357 22.4727 99.4785 22.6908 99.1562 22.8535C98.8372 23.0163 98.4987 23.0977 98.1406 23.0977C97.4212 23.0977 96.8483 22.8584 96.4219 22.3799C95.9987 21.8981 95.7871 21.2406 95.7871 20.4072V20.2559C95.7871 19.7415 95.8815 19.2842 96.0703 18.8838C96.2591 18.4834 96.5293 18.1725 96.8809 17.9512C97.2357 17.7298 97.654 17.6191 98.1357 17.6191C98.7282 17.6191 99.2197 17.7965 99.6104 18.1514C100.004 18.5062 100.214 18.9668 100.24 19.5332H99.3857C99.3597 19.1914 99.2295 18.9115 98.9951 18.6934C98.764 18.472 98.4775 18.3613 98.1357 18.3613C97.6768 18.3613 97.3203 18.5273 97.0664 18.8594C96.8158 19.1882 96.6904 19.665 96.6904 20.29V20.4609C96.6904 21.0697 96.8158 21.5384 97.0664 21.8672C97.3171 22.196 97.6751 22.3604 98.1406 22.3604ZM102.159 18.3564C102.56 17.8649 103.08 17.6191 103.722 17.6191C104.838 17.6191 105.401 18.249 105.411 19.5088V23H104.508V19.5039C104.505 19.123 104.417 18.8415 104.244 18.6592C104.075 18.4769 103.81 18.3857 103.448 18.3857C103.155 18.3857 102.898 18.4639 102.677 18.6201C102.455 18.7764 102.283 18.9814 102.159 19.2354V23H101.256V15.5H102.159V18.3564ZM110.025 22.4775C109.674 22.891 109.158 23.0977 108.478 23.0977C107.914 23.0977 107.485 22.9349 107.188 22.6094C106.896 22.2806 106.747 21.7956 106.744 21.1543V17.7168H107.647V21.1299C107.647 21.9307 107.973 22.3311 108.624 22.3311C109.314 22.3311 109.773 22.0739 110.001 21.5596V17.7168H110.904V23H110.045L110.025 22.4775ZM113.756 20.5537L113.189 21.1445V23H112.286V15.5H113.189V20.0361L113.673 19.4551L115.318 17.7168H116.417L114.361 19.9238L116.656 23H115.597L113.756 20.5537Z" fill="#FEFEFE"/>
<path d="M59.3711 9.85156C59.3711 9.20312 59.5247 8.68229 59.832 8.28906C60.1393 7.89323 60.5417 7.69531 61.0391 7.69531C61.5339 7.69531 61.9258 7.86458 62.2148 8.20312V6H62.9375V12H62.2734L62.2383 11.5469C61.9492 11.901 61.5469 12.0781 61.0312 12.0781C60.5417 12.0781 60.1419 11.8776 59.832 11.4766C59.5247 11.0755 59.3711 10.5521 59.3711 9.90625V9.85156ZM60.0938 9.93359C60.0938 10.4128 60.1927 10.7878 60.3906 11.0586C60.5885 11.3294 60.862 11.4648 61.2109 11.4648C61.6693 11.4648 62.0039 11.2591 62.2148 10.8477V8.90625C61.9987 8.50781 61.6667 8.30859 61.2188 8.30859C60.8646 8.30859 60.5885 8.44531 60.3906 8.71875C60.1927 8.99219 60.0938 9.39714 60.0938 9.93359ZM65.8164 12.0781C65.2435 12.0781 64.7773 11.8906 64.418 11.5156C64.0586 11.138 63.8789 10.6341 63.8789 10.0039V9.87109C63.8789 9.45182 63.9583 9.07812 64.1172 8.75C64.2786 8.41927 64.5026 8.16146 64.7891 7.97656C65.0781 7.78906 65.3906 7.69531 65.7266 7.69531C66.276 7.69531 66.7031 7.8763 67.0078 8.23828C67.3125 8.60026 67.4648 9.11849 67.4648 9.79297V10.0938H64.6016C64.612 10.5104 64.7331 10.8477 64.9648 11.1055C65.1992 11.3607 65.4961 11.4883 65.8555 11.4883C66.1107 11.4883 66.3268 11.4362 66.5039 11.332C66.681 11.2279 66.8359 11.0898 66.9688 10.918L67.4102 11.2617C67.056 11.806 66.5247 12.0781 65.8164 12.0781ZM65.7266 8.28906C65.4349 8.28906 65.1901 8.39583 64.9922 8.60938C64.7943 8.82031 64.6719 9.11719 64.625 9.5H66.7422V9.44531C66.7214 9.07812 66.6224 8.79427 66.4453 8.59375C66.2682 8.39062 66.0286 8.28906 65.7266 8.28906ZM70.7656 10.8789C70.7656 10.6836 70.6914 10.5326 70.543 10.4258C70.3971 10.3164 70.1406 10.2227 69.7734 10.1445C69.4089 10.0664 69.1185 9.97266 68.9023 9.86328C68.6888 9.75391 68.5299 9.6237 68.4258 9.47266C68.3242 9.32161 68.2734 9.14193 68.2734 8.93359C68.2734 8.58724 68.4193 8.29427 68.7109 8.05469C69.0052 7.8151 69.3802 7.69531 69.8359 7.69531C70.3151 7.69531 70.7031 7.81901 71 8.06641C71.2995 8.3138 71.4492 8.63021 71.4492 9.01562H70.7227C70.7227 8.81771 70.638 8.64714 70.4688 8.50391C70.3021 8.36068 70.0911 8.28906 69.8359 8.28906C69.5729 8.28906 69.3672 8.34635 69.2188 8.46094C69.0703 8.57552 68.9961 8.72526 68.9961 8.91016C68.9961 9.08464 69.0651 9.21615 69.2031 9.30469C69.3411 9.39323 69.5898 9.47786 69.9492 9.55859C70.3112 9.63932 70.6042 9.73568 70.8281 9.84766C71.0521 9.95964 71.2174 10.0951 71.3242 10.2539C71.4336 10.4102 71.4883 10.6016 71.4883 10.8281C71.4883 11.2057 71.3372 11.5091 71.0352 11.7383C70.7331 11.9648 70.3411 12.0781 69.8594 12.0781C69.5208 12.0781 69.2214 12.0182 68.9609 11.8984C68.7005 11.7786 68.4961 11.612 68.3477 11.3984C68.2018 11.1823 68.1289 10.9492 68.1289 10.6992H68.8516C68.8646 10.9414 68.9609 11.1341 69.1406 11.2773C69.3229 11.418 69.5625 11.4883 69.8594 11.4883C70.1328 11.4883 70.3516 11.4336 70.5156 11.3242C70.6823 11.2122 70.7656 11.0638 70.7656 10.8789ZM73.2148 12H72.4922V7.77344H73.2148V12ZM72.4336 6.65234C72.4336 6.53516 72.4688 6.4362 72.5391 6.35547C72.612 6.27474 72.7188 6.23438 72.8594 6.23438C73 6.23438 73.1068 6.27474 73.1797 6.35547C73.2526 6.4362 73.2891 6.53516 73.2891 6.65234C73.2891 6.76953 73.2526 6.86719 73.1797 6.94531C73.1068 7.02344 73 7.0625 72.8594 7.0625C72.7188 7.0625 72.612 7.02344 72.5391 6.94531C72.4688 6.86719 72.4336 6.76953 72.4336 6.65234ZM74.2031 9.85156C74.2031 9.19271 74.3555 8.66927 74.6602 8.28125C74.9648 7.89062 75.3685 7.69531 75.8711 7.69531C76.3867 7.69531 76.7891 7.8776 77.0781 8.24219L77.1133 7.77344H77.7734V11.8984C77.7734 12.4453 77.6107 12.8763 77.2852 13.1914C76.9622 13.5065 76.5273 13.6641 75.9805 13.6641C75.6758 13.6641 75.3776 13.599 75.0859 13.4688C74.7943 13.3385 74.5716 13.1602 74.418 12.9336L74.793 12.5C75.1029 12.8828 75.4818 13.0742 75.9297 13.0742C76.2812 13.0742 76.5547 12.9753 76.75 12.7773C76.9479 12.5794 77.0469 12.3008 77.0469 11.9414V11.5781C76.7578 11.9115 76.3633 12.0781 75.8633 12.0781C75.3685 12.0781 74.9674 11.8789 74.6602 11.4805C74.3555 11.082 74.2031 10.5391 74.2031 9.85156ZM74.9297 9.93359C74.9297 10.4102 75.0273 10.7852 75.2227 11.0586C75.418 11.3294 75.6914 11.4648 76.043 11.4648C76.4987 11.4648 76.8333 11.2578 77.0469 10.8438V8.91406C76.8255 8.51042 76.4935 8.30859 76.0508 8.30859C75.6992 8.30859 75.4245 8.44531 75.2266 8.71875C75.0286 8.99219 74.9297 9.39714 74.9297 9.93359ZM79.5508 7.77344L79.5742 8.30469C79.8971 7.89844 80.319 7.69531 80.8398 7.69531C81.7331 7.69531 82.1836 8.19922 82.1914 9.20703V12H81.4688V9.20312C81.4661 8.89844 81.3958 8.67318 81.2578 8.52734C81.1224 8.38151 80.9102 8.30859 80.6211 8.30859C80.3867 8.30859 80.181 8.37109 80.0039 8.49609C79.8268 8.62109 79.6888 8.78516 79.5898 8.98828V12H78.8672V7.77344H79.5508Z" fill="#FEFEFE"/>
<path d="M85.3945 10.4727C85.3945 10.1992 85.4701 9.94792 85.6211 9.71875C85.7747 9.48958 86.0664 9.22266 86.4961 8.91797C86.2435 8.61068 86.0742 8.36328 85.9883 8.17578C85.9023 7.98828 85.8594 7.80208 85.8594 7.61719C85.8594 7.1849 85.987 6.84635 86.2422 6.60156C86.4974 6.35677 86.8438 6.23438 87.2812 6.23438C87.6719 6.23438 87.9948 6.34896 88.25 6.57812C88.5052 6.80469 88.6328 7.09115 88.6328 7.4375C88.6328 7.66667 88.5742 7.87891 88.457 8.07422C88.3424 8.26693 88.1406 8.47005 87.8516 8.68359L87.4336 8.99219L88.6992 10.5039C88.8763 10.1654 88.9648 9.78906 88.9648 9.375H89.6172C89.6172 10.0391 89.457 10.5898 89.1367 11.0273L89.9492 12H89.082L88.7031 11.5508C88.5104 11.7227 88.2839 11.8542 88.0234 11.9453C87.7656 12.0339 87.5026 12.0781 87.2344 12.0781C86.6797 12.0781 86.2344 11.931 85.8984 11.6367C85.5625 11.3424 85.3945 10.9544 85.3945 10.4727ZM87.2344 11.4883C87.6172 11.4883 87.9674 11.3424 88.2852 11.0508L86.8984 9.39062L86.7695 9.48438C86.3346 9.80469 86.1172 10.1341 86.1172 10.4727C86.1172 10.7799 86.2161 11.026 86.4141 11.2109C86.6146 11.3958 86.888 11.4883 87.2344 11.4883ZM86.582 7.59375C86.582 7.84375 86.7357 8.15625 87.043 8.53125L87.5039 8.20703C87.681 8.08203 87.8021 7.96354 87.8672 7.85156C87.9323 7.73698 87.9648 7.59896 87.9648 7.4375C87.9648 7.26302 87.8997 7.11849 87.7695 7.00391C87.6393 6.88672 87.4753 6.82812 87.2773 6.82812C87.0638 6.82812 86.8945 6.90104 86.7695 7.04688C86.6445 7.1901 86.582 7.3724 86.582 7.59375Z" fill="#FEFEFE"/>
<path d="M94.2422 11.4883C94.5 11.4883 94.7253 11.4102 94.918 11.2539C95.1107 11.0977 95.2174 10.9023 95.2383 10.668H95.9219C95.9089 10.9102 95.8255 11.1406 95.6719 11.3594C95.5182 11.5781 95.3125 11.7526 95.0547 11.8828C94.7995 12.013 94.5286 12.0781 94.2422 12.0781C93.6667 12.0781 93.2083 11.8867 92.8672 11.5039C92.5286 11.1185 92.3594 10.5924 92.3594 9.92578V9.80469C92.3594 9.39323 92.4349 9.02734 92.5859 8.70703C92.737 8.38672 92.9531 8.13802 93.2344 7.96094C93.5182 7.78385 93.8529 7.69531 94.2383 7.69531C94.7122 7.69531 95.1055 7.83724 95.418 8.12109C95.7331 8.40495 95.901 8.77344 95.9219 9.22656H95.2383C95.2174 8.95312 95.1133 8.72917 94.9258 8.55469C94.7409 8.3776 94.5117 8.28906 94.2383 8.28906C93.8711 8.28906 93.5859 8.42188 93.3828 8.6875C93.1823 8.95052 93.082 9.33203 93.082 9.83203V9.96875C93.082 10.4557 93.1823 10.8307 93.3828 11.0938C93.5833 11.3568 93.8698 11.4883 94.2422 11.4883ZM96.543 9.84766C96.543 9.43359 96.6237 9.0612 96.7852 8.73047C96.9492 8.39974 97.1758 8.14453 97.4648 7.96484C97.7565 7.78516 98.0885 7.69531 98.4609 7.69531C99.0365 7.69531 99.5013 7.89453 99.8555 8.29297C100.212 8.69141 100.391 9.22135 100.391 9.88281V9.93359C100.391 10.3451 100.311 10.7148 100.152 11.043C99.9961 11.3685 99.7708 11.6224 99.4766 11.8047C99.1849 11.987 98.849 12.0781 98.4688 12.0781C97.8958 12.0781 97.431 11.8789 97.0742 11.4805C96.7201 11.082 96.543 10.5547 96.543 9.89844V9.84766ZM97.2695 9.93359C97.2695 10.4023 97.3776 10.7786 97.5938 11.0625C97.8125 11.3464 98.1042 11.4883 98.4688 11.4883C98.8359 11.4883 99.1276 11.3451 99.3438 11.0586C99.5599 10.7695 99.668 10.3659 99.668 9.84766C99.668 9.38411 99.5573 9.00911 99.3359 8.72266C99.1172 8.43359 98.8255 8.28906 98.4609 8.28906C98.1042 8.28906 97.8164 8.43099 97.5977 8.71484C97.3789 8.9987 97.2695 9.40495 97.2695 9.93359ZM101.121 9.85156C101.121 9.20312 101.275 8.68229 101.582 8.28906C101.889 7.89323 102.292 7.69531 102.789 7.69531C103.284 7.69531 103.676 7.86458 103.965 8.20312V6H104.688V12H104.023L103.988 11.5469C103.699 11.901 103.297 12.0781 102.781 12.0781C102.292 12.0781 101.892 11.8776 101.582 11.4766C101.275 11.0755 101.121 10.5521 101.121 9.90625V9.85156ZM101.844 9.93359C101.844 10.4128 101.943 10.7878 102.141 11.0586C102.339 11.3294 102.612 11.4648 102.961 11.4648C103.419 11.4648 103.754 11.2591 103.965 10.8477V8.90625C103.749 8.50781 103.417 8.30859 102.969 8.30859C102.615 8.30859 102.339 8.44531 102.141 8.71875C101.943 8.99219 101.844 9.39714 101.844 9.93359ZM106.598 12H105.875V7.77344H106.598V12ZM105.816 6.65234C105.816 6.53516 105.852 6.4362 105.922 6.35547C105.995 6.27474 106.102 6.23438 106.242 6.23438C106.383 6.23438 106.49 6.27474 106.562 6.35547C106.635 6.4362 106.672 6.53516 106.672 6.65234C106.672 6.76953 106.635 6.86719 106.562 6.94531C106.49 7.02344 106.383 7.0625 106.242 7.0625C106.102 7.0625 105.995 7.02344 105.922 6.94531C105.852 6.86719 105.816 6.76953 105.816 6.65234ZM108.441 7.77344L108.465 8.30469C108.788 7.89844 109.21 7.69531 109.73 7.69531C110.624 7.69531 111.074 8.19922 111.082 9.20703V12H110.359V9.20312C110.357 8.89844 110.286 8.67318 110.148 8.52734C110.013 8.38151 109.801 8.30859 109.512 8.30859C109.277 8.30859 109.072 8.37109 108.895 8.49609C108.717 8.62109 108.579 8.78516 108.48 8.98828V12H107.758V7.77344H108.441ZM112 9.85156C112 9.19271 112.152 8.66927 112.457 8.28125C112.762 7.89062 113.165 7.69531 113.668 7.69531C114.184 7.69531 114.586 7.8776 114.875 8.24219L114.91 7.77344H115.57V11.8984C115.57 12.4453 115.408 12.8763 115.082 13.1914C114.759 13.5065 114.324 13.6641 113.777 13.6641C113.473 13.6641 113.174 13.599 112.883 13.4688C112.591 13.3385 112.368 13.1602 112.215 12.9336L112.59 12.5C112.9 12.8828 113.279 13.0742 113.727 13.0742C114.078 13.0742 114.352 12.9753 114.547 12.7773C114.745 12.5794 114.844 12.3008 114.844 11.9414V11.5781C114.555 11.9115 114.16 12.0781 113.66 12.0781C113.165 12.0781 112.764 11.8789 112.457 11.4805C112.152 11.082 112 10.5391 112 9.85156ZM112.727 9.93359C112.727 10.4102 112.824 10.7852 113.02 11.0586C113.215 11.3294 113.488 11.4648 113.84 11.4648C114.296 11.4648 114.63 11.2578 114.844 10.8438V8.91406C114.622 8.51042 114.29 8.30859 113.848 8.30859C113.496 8.30859 113.221 8.44531 113.023 8.71875C112.826 8.99219 112.727 9.39714 112.727 9.93359Z" fill="#FEFEFE"/>
</svg>
