<svg width="122" height="31" viewBox="0 0 122 31" fill="none" xmlns="http://www.w3.org/2000/svg">
<path d="M0 5C0 2.23858 2.23858 0 5 0H122V31H5C2.23858 31 0 28.7614 0 26V5Z" fill="#212020"/>
<path d="M36.4863 20.5488C36.4473 21.3366 36.252 21.9583 35.9004 22.4141C35.5488 22.8698 35.0785 23.0977 34.4893 23.0977C33.8805 23.0977 33.4899 22.8242 33.3174 22.2773C33.1416 22.554 32.9398 22.7607 32.7119 22.8975C32.4873 23.0309 32.2546 23.0977 32.0137 23.0977C31.5514 23.0977 31.2015 22.9089 30.9639 22.5312C30.7262 22.1536 30.6383 21.6312 30.7002 20.9639C30.749 20.4268 30.8711 19.9482 31.0664 19.5283C31.265 19.1051 31.5189 18.7731 31.8281 18.5322C32.1406 18.2913 32.4678 18.1709 32.8096 18.1709C33.0732 18.1709 33.3092 18.2067 33.5176 18.2783C33.7259 18.3467 33.9603 18.4834 34.2207 18.6885L33.9668 21.3936C33.9049 22.1455 34.1133 22.5215 34.5918 22.5215C34.9596 22.5215 35.2575 22.3392 35.4854 21.9746C35.7132 21.61 35.8369 21.1348 35.8564 20.5488C35.9183 19.2826 35.6823 18.3174 35.1484 17.6533C34.6178 16.9893 33.8089 16.6572 32.7217 16.6572C32.0674 16.6572 31.4863 16.82 30.9785 17.1455C30.4707 17.4678 30.0703 17.9349 29.7773 18.5469C29.4844 19.1589 29.32 19.8652 29.2842 20.666C29.2451 21.4733 29.3428 22.1748 29.5771 22.7705C29.8115 23.363 30.168 23.8154 30.6465 24.1279C31.1283 24.4437 31.7093 24.6016 32.3896 24.6016C32.6826 24.6016 32.9756 24.5658 33.2686 24.4941C33.5648 24.4225 33.8105 24.3298 34.0059 24.2158L34.1865 24.7773C33.9847 24.9043 33.7161 25.0085 33.3809 25.0898C33.0488 25.1712 32.7119 25.2119 32.3701 25.2119C31.5563 25.2119 30.8564 25.028 30.2705 24.6602C29.6846 24.2956 29.2451 23.7682 28.9521 23.0781C28.6624 22.3913 28.5371 21.5872 28.5762 20.666C28.6152 19.7708 28.8154 18.9668 29.1768 18.2539C29.5381 17.5378 30.028 16.986 30.6465 16.5986C31.265 16.208 31.9632 16.0127 32.7412 16.0127C33.5518 16.0127 34.2467 16.195 34.8262 16.5596C35.4056 16.9242 35.8369 17.4499 36.1201 18.1367C36.4033 18.8236 36.5254 19.6276 36.4863 20.5488ZM31.4766 20.9639C31.431 21.4261 31.4733 21.7809 31.6035 22.0283C31.737 22.2757 31.9469 22.3994 32.2334 22.3994C32.4287 22.3994 32.6159 22.3164 32.7949 22.1504C32.9772 21.9844 33.127 21.7467 33.2441 21.4375L33.249 21.3936L33.4736 18.9375C33.2913 18.8431 33.096 18.7959 32.8877 18.7959C32.5068 18.7959 32.1911 18.9896 31.9404 19.377C31.693 19.7643 31.5384 20.2933 31.4766 20.9639ZM40.2217 18.5273C40.085 18.5046 39.9368 18.4932 39.7773 18.4932C39.1849 18.4932 38.7829 18.7454 38.5713 19.25V23H37.668V17.7168H38.5469L38.5615 18.3271C38.8577 17.8551 39.2777 17.6191 39.8213 17.6191C39.9971 17.6191 40.1305 17.6419 40.2217 17.6875V18.5273ZM40.7197 20.3096C40.7197 19.792 40.8206 19.3265 41.0225 18.9131C41.2275 18.4997 41.5107 18.1807 41.8721 17.9561C42.2367 17.7314 42.6517 17.6191 43.1172 17.6191C43.8366 17.6191 44.4176 17.8682 44.8604 18.3662C45.3063 18.8643 45.5293 19.5267 45.5293 20.3535V20.417C45.5293 20.9313 45.43 21.3936 45.2314 21.8037C45.0361 22.2106 44.7546 22.528 44.3867 22.7559C44.0221 22.9837 43.6022 23.0977 43.127 23.0977C42.4108 23.0977 41.8298 22.8486 41.3838 22.3506C40.9411 21.8525 40.7197 21.1934 40.7197 20.373V20.3096ZM41.6279 20.417C41.6279 21.0029 41.763 21.4733 42.0332 21.8281C42.3066 22.1829 42.6712 22.3604 43.127 22.3604C43.5859 22.3604 43.9505 22.1813 44.2207 21.8232C44.4909 21.4619 44.626 20.9574 44.626 20.3096C44.626 19.7301 44.4876 19.2614 44.2109 18.9033C43.9375 18.542 43.5729 18.3613 43.1172 18.3613C42.6712 18.3613 42.3115 18.5387 42.0381 18.8936C41.7646 19.2484 41.6279 19.7562 41.6279 20.417ZM47.5117 17.7168L47.5361 18.3027C47.9235 17.847 48.446 17.6191 49.1035 17.6191C49.8424 17.6191 50.3454 17.9023 50.6123 18.4688C50.7881 18.2148 51.016 18.0098 51.2959 17.8535C51.5791 17.6973 51.9128 17.6191 52.2969 17.6191C53.4557 17.6191 54.0449 18.2327 54.0645 19.46V23H53.1611V19.5137C53.1611 19.1361 53.0749 18.8545 52.9023 18.6689C52.7298 18.4801 52.4401 18.3857 52.0332 18.3857C51.6979 18.3857 51.4196 18.4867 51.1982 18.6885C50.9769 18.887 50.8483 19.1556 50.8125 19.4941V23H49.9043V19.5381C49.9043 18.7699 49.5283 18.3857 48.7764 18.3857C48.1839 18.3857 47.7786 18.638 47.5605 19.1426V23H46.6572V17.7168H47.5117ZM58.6934 23C58.6413 22.8958 58.599 22.7103 58.5664 22.4434C58.1465 22.8796 57.6452 23.0977 57.0625 23.0977C56.5417 23.0977 56.1136 22.9512 55.7783 22.6582C55.4463 22.362 55.2803 21.9876 55.2803 21.5352C55.2803 20.985 55.4886 20.5586 55.9053 20.2559C56.3252 19.9499 56.9144 19.7969 57.6729 19.7969H58.5518V19.3818C58.5518 19.0661 58.4574 18.8154 58.2686 18.6299C58.0798 18.4411 57.8014 18.3467 57.4336 18.3467C57.1113 18.3467 56.8411 18.4281 56.623 18.5908C56.4049 18.7536 56.2959 18.9505 56.2959 19.1816H55.3877C55.3877 18.918 55.4805 18.6641 55.666 18.4199C55.8548 18.1725 56.1087 17.9772 56.4277 17.834C56.75 17.6908 57.1032 17.6191 57.4873 17.6191C58.096 17.6191 58.5729 17.7721 58.918 18.0781C59.263 18.3809 59.4421 18.7992 59.4551 19.333V21.7646C59.4551 22.2497 59.5169 22.6354 59.6406 22.9219V23H58.6934ZM57.1943 22.3115C57.4775 22.3115 57.7461 22.2383 58 22.0918C58.2539 21.9453 58.4378 21.7549 58.5518 21.5205V20.4365H57.8438C56.737 20.4365 56.1836 20.7604 56.1836 21.4082C56.1836 21.6914 56.278 21.9128 56.4668 22.0723C56.6556 22.2318 56.8981 22.3115 57.1943 22.3115ZM61.7256 17.7168L61.7549 18.3809C62.1585 17.873 62.6859 17.6191 63.3369 17.6191C64.4535 17.6191 65.0166 18.249 65.0264 19.5088V23H64.123V19.5039C64.1198 19.123 64.0319 18.8415 63.8594 18.6592C63.6901 18.4769 63.4248 18.3857 63.0635 18.3857C62.7705 18.3857 62.5133 18.4639 62.292 18.6201C62.0706 18.7764 61.8981 18.9814 61.7744 19.2354V23H60.8711V17.7168H61.7256ZM70.1973 23.7373H65.7246V23H70.1973V23.7373ZM72.126 16.4375V17.7168H73.1123V18.415H72.126V21.6914C72.126 21.903 72.1699 22.0625 72.2578 22.1699C72.3457 22.2741 72.4954 22.3262 72.707 22.3262C72.8112 22.3262 72.9544 22.3066 73.1367 22.2676V23C72.8991 23.0651 72.668 23.0977 72.4434 23.0977C72.0397 23.0977 71.7354 22.9756 71.5303 22.7314C71.3252 22.4873 71.2227 22.1406 71.2227 21.6914V18.415H70.2607V17.7168H71.2227V16.4375H72.126ZM75.1533 23H74.25V17.7168H75.1533V23ZM74.1768 16.3154C74.1768 16.1689 74.2207 16.0452 74.3086 15.9443C74.3997 15.8434 74.5332 15.793 74.709 15.793C74.8848 15.793 75.0182 15.8434 75.1094 15.9443C75.2005 16.0452 75.2461 16.1689 75.2461 16.3154C75.2461 16.4619 75.2005 16.584 75.1094 16.6816C75.0182 16.7793 74.8848 16.8281 74.709 16.8281C74.5332 16.8281 74.3997 16.7793 74.3086 16.6816C74.2207 16.584 74.1768 16.4619 74.1768 16.3154ZM77.4531 17.7168L77.4775 18.3027C77.8649 17.847 78.3874 17.6191 79.0449 17.6191C79.7839 17.6191 80.2868 17.9023 80.5537 18.4688C80.7295 18.2148 80.9574 18.0098 81.2373 17.8535C81.5205 17.6973 81.8542 17.6191 82.2383 17.6191C83.3971 17.6191 83.9863 18.2327 84.0059 19.46V23H83.1025V19.5137C83.1025 19.1361 83.0163 18.8545 82.8438 18.6689C82.6712 18.4801 82.3815 18.3857 81.9746 18.3857C81.6393 18.3857 81.361 18.4867 81.1396 18.6885C80.9183 18.887 80.7897 19.1556 80.7539 19.4941V23H79.8457V19.5381C79.8457 18.7699 79.4697 18.3857 78.7178 18.3857C78.1253 18.3857 77.7201 18.638 77.502 19.1426V23H76.5986V17.7168H77.4531ZM85.1338 20.3096C85.1338 19.792 85.2347 19.3265 85.4365 18.9131C85.6416 18.4997 85.9248 18.1807 86.2861 17.9561C86.6507 17.7314 87.0658 17.6191 87.5312 17.6191C88.2507 17.6191 88.8317 17.8682 89.2744 18.3662C89.7204 18.8643 89.9434 19.5267 89.9434 20.3535V20.417C89.9434 20.9313 89.8441 21.3936 89.6455 21.8037C89.4502 22.2106 89.1686 22.528 88.8008 22.7559C88.4362 22.9837 88.0163 23.0977 87.541 23.0977C86.8249 23.0977 86.2438 22.8486 85.7979 22.3506C85.3551 21.8525 85.1338 21.1934 85.1338 20.373V20.3096ZM86.042 20.417C86.042 21.0029 86.1771 21.4733 86.4473 21.8281C86.7207 22.1829 87.0853 22.3604 87.541 22.3604C88 22.3604 88.3646 22.1813 88.6348 21.8232C88.9049 21.4619 89.04 20.9574 89.04 20.3096C89.04 19.7301 88.9017 19.2614 88.625 18.9033C88.3516 18.542 87.987 18.3613 87.5312 18.3613C87.0853 18.3613 86.7256 18.5387 86.4521 18.8936C86.1787 19.2484 86.042 19.7562 86.042 20.417ZM94.1523 21.5986C94.1523 21.3545 94.0596 21.1657 93.874 21.0322C93.6917 20.8955 93.3711 20.7783 92.9121 20.6807C92.4564 20.583 92.0934 20.4658 91.8232 20.3291C91.5563 20.1924 91.3577 20.0296 91.2275 19.8408C91.1006 19.652 91.0371 19.4274 91.0371 19.167C91.0371 18.734 91.2194 18.3678 91.584 18.0684C91.9518 17.7689 92.4206 17.6191 92.9902 17.6191C93.5892 17.6191 94.0742 17.7738 94.4453 18.083C94.8197 18.3923 95.0068 18.7878 95.0068 19.2695H94.0986C94.0986 19.0221 93.9928 18.8089 93.7812 18.6299C93.5729 18.4508 93.3092 18.3613 92.9902 18.3613C92.6615 18.3613 92.4043 18.4329 92.2188 18.5762C92.0332 18.7194 91.9404 18.9066 91.9404 19.1377C91.9404 19.3558 92.0267 19.5202 92.1992 19.6309C92.3717 19.7415 92.6826 19.8473 93.1318 19.9482C93.5843 20.0492 93.9505 20.1696 94.2305 20.3096C94.5104 20.4495 94.7171 20.6188 94.8506 20.8174C94.9873 21.0127 95.0557 21.252 95.0557 21.5352C95.0557 22.0072 94.8669 22.3864 94.4893 22.6729C94.1117 22.9561 93.6217 23.0977 93.0195 23.0977C92.5964 23.0977 92.222 23.0228 91.8965 22.873C91.571 22.7233 91.3154 22.515 91.1299 22.248C90.9476 21.9779 90.8564 21.6865 90.8564 21.374H91.7598C91.776 21.6768 91.8965 21.9176 92.1211 22.0967C92.349 22.2725 92.6484 22.3604 93.0195 22.3604C93.3613 22.3604 93.6348 22.292 93.8398 22.1553C94.0482 22.0153 94.1523 21.8298 94.1523 21.5986ZM98.3516 22.3604C98.6738 22.3604 98.9554 22.2627 99.1963 22.0674C99.4372 21.8721 99.5706 21.6279 99.5967 21.335H100.451C100.435 21.6377 100.331 21.9258 100.139 22.1992C99.9466 22.4727 99.6895 22.6908 99.3672 22.8535C99.0482 23.0163 98.7096 23.0977 98.3516 23.0977C97.6322 23.0977 97.0592 22.8584 96.6328 22.3799C96.2096 21.8981 95.998 21.2406 95.998 20.4072V20.2559C95.998 19.7415 96.0924 19.2842 96.2812 18.8838C96.4701 18.4834 96.7402 18.1725 97.0918 17.9512C97.4466 17.7298 97.8649 17.6191 98.3467 17.6191C98.9391 17.6191 99.4307 17.7965 99.8213 18.1514C100.215 18.5062 100.425 18.9668 100.451 19.5332H99.5967C99.5706 19.1914 99.4404 18.9115 99.2061 18.6934C98.9749 18.472 98.6885 18.3613 98.3467 18.3613C97.8877 18.3613 97.5312 18.5273 97.2773 18.8594C97.0267 19.1882 96.9014 19.665 96.9014 20.29V20.4609C96.9014 21.0697 97.0267 21.5384 97.2773 21.8672C97.528 22.196 97.8861 22.3604 98.3516 22.3604ZM102.37 18.3564C102.771 17.8649 103.291 17.6191 103.933 17.6191C105.049 17.6191 105.612 18.249 105.622 19.5088V23H104.719V19.5039C104.715 19.123 104.628 18.8415 104.455 18.6592C104.286 18.4769 104.021 18.3857 103.659 18.3857C103.366 18.3857 103.109 18.4639 102.888 18.6201C102.666 18.7764 102.494 18.9814 102.37 19.2354V23H101.467V15.5H102.37V18.3564ZM110.236 22.4775C109.885 22.891 109.369 23.0977 108.688 23.0977C108.125 23.0977 107.696 22.9349 107.399 22.6094C107.106 22.2806 106.958 21.7956 106.955 21.1543V17.7168H107.858V21.1299C107.858 21.9307 108.184 22.3311 108.835 22.3311C109.525 22.3311 109.984 22.0739 110.212 21.5596V17.7168H111.115V23H110.256L110.236 22.4775ZM113.967 20.5537L113.4 21.1445V23H112.497V15.5H113.4V20.0361L113.884 19.4551L115.529 17.7168H116.628L114.572 19.9238L116.867 23H115.808L113.967 20.5537Z" fill="#FEFEFE"/>
<path d="M59.3711 9.85156C59.3711 9.20312 59.5247 8.68229 59.832 8.28906C60.1393 7.89323 60.5417 7.69531 61.0391 7.69531C61.5339 7.69531 61.9258 7.86458 62.2148 8.20312V6H62.9375V12H62.2734L62.2383 11.5469C61.9492 11.901 61.5469 12.0781 61.0312 12.0781C60.5417 12.0781 60.1419 11.8776 59.832 11.4766C59.5247 11.0755 59.3711 10.5521 59.3711 9.90625V9.85156ZM60.0938 9.93359C60.0938 10.4128 60.1927 10.7878 60.3906 11.0586C60.5885 11.3294 60.862 11.4648 61.2109 11.4648C61.6693 11.4648 62.0039 11.2591 62.2148 10.8477V8.90625C61.9987 8.50781 61.6667 8.30859 61.2188 8.30859C60.8646 8.30859 60.5885 8.44531 60.3906 8.71875C60.1927 8.99219 60.0938 9.39714 60.0938 9.93359ZM65.8164 12.0781C65.2435 12.0781 64.7773 11.8906 64.418 11.5156C64.0586 11.138 63.8789 10.6341 63.8789 10.0039V9.87109C63.8789 9.45182 63.9583 9.07812 64.1172 8.75C64.2786 8.41927 64.5026 8.16146 64.7891 7.97656C65.0781 7.78906 65.3906 7.69531 65.7266 7.69531C66.276 7.69531 66.7031 7.8763 67.0078 8.23828C67.3125 8.60026 67.4648 9.11849 67.4648 9.79297V10.0938H64.6016C64.612 10.5104 64.7331 10.8477 64.9648 11.1055C65.1992 11.3607 65.4961 11.4883 65.8555 11.4883C66.1107 11.4883 66.3268 11.4362 66.5039 11.332C66.681 11.2279 66.8359 11.0898 66.9688 10.918L67.4102 11.2617C67.056 11.806 66.5247 12.0781 65.8164 12.0781ZM65.7266 8.28906C65.4349 8.28906 65.1901 8.39583 64.9922 8.60938C64.7943 8.82031 64.6719 9.11719 64.625 9.5H66.7422V9.44531C66.7214 9.07812 66.6224 8.79427 66.4453 8.59375C66.2682 8.39062 66.0286 8.28906 65.7266 8.28906ZM70.7656 10.8789C70.7656 10.6836 70.6914 10.5326 70.543 10.4258C70.3971 10.3164 70.1406 10.2227 69.7734 10.1445C69.4089 10.0664 69.1185 9.97266 68.9023 9.86328C68.6888 9.75391 68.5299 9.6237 68.4258 9.47266C68.3242 9.32161 68.2734 9.14193 68.2734 8.93359C68.2734 8.58724 68.4193 8.29427 68.7109 8.05469C69.0052 7.8151 69.3802 7.69531 69.8359 7.69531C70.3151 7.69531 70.7031 7.81901 71 8.06641C71.2995 8.3138 71.4492 8.63021 71.4492 9.01562H70.7227C70.7227 8.81771 70.638 8.64714 70.4688 8.50391C70.3021 8.36068 70.0911 8.28906 69.8359 8.28906C69.5729 8.28906 69.3672 8.34635 69.2188 8.46094C69.0703 8.57552 68.9961 8.72526 68.9961 8.91016C68.9961 9.08464 69.0651 9.21615 69.2031 9.30469C69.3411 9.39323 69.5898 9.47786 69.9492 9.55859C70.3112 9.63932 70.6042 9.73568 70.8281 9.84766C71.0521 9.95964 71.2174 10.0951 71.3242 10.2539C71.4336 10.4102 71.4883 10.6016 71.4883 10.8281C71.4883 11.2057 71.3372 11.5091 71.0352 11.7383C70.7331 11.9648 70.3411 12.0781 69.8594 12.0781C69.5208 12.0781 69.2214 12.0182 68.9609 11.8984C68.7005 11.7786 68.4961 11.612 68.3477 11.3984C68.2018 11.1823 68.1289 10.9492 68.1289 10.6992H68.8516C68.8646 10.9414 68.9609 11.1341 69.1406 11.2773C69.3229 11.418 69.5625 11.4883 69.8594 11.4883C70.1328 11.4883 70.3516 11.4336 70.5156 11.3242C70.6823 11.2122 70.7656 11.0638 70.7656 10.8789ZM73.2148 12H72.4922V7.77344H73.2148V12ZM72.4336 6.65234C72.4336 6.53516 72.4688 6.4362 72.5391 6.35547C72.612 6.27474 72.7188 6.23438 72.8594 6.23438C73 6.23438 73.1068 6.27474 73.1797 6.35547C73.2526 6.4362 73.2891 6.53516 73.2891 6.65234C73.2891 6.76953 73.2526 6.86719 73.1797 6.94531C73.1068 7.02344 73 7.0625 72.8594 7.0625C72.7188 7.0625 72.612 7.02344 72.5391 6.94531C72.4688 6.86719 72.4336 6.76953 72.4336 6.65234ZM74.2031 9.85156C74.2031 9.19271 74.3555 8.66927 74.6602 8.28125C74.9648 7.89062 75.3685 7.69531 75.8711 7.69531C76.3867 7.69531 76.7891 7.8776 77.0781 8.24219L77.1133 7.77344H77.7734V11.8984C77.7734 12.4453 77.6107 12.8763 77.2852 13.1914C76.9622 13.5065 76.5273 13.6641 75.9805 13.6641C75.6758 13.6641 75.3776 13.599 75.0859 13.4688C74.7943 13.3385 74.5716 13.1602 74.418 12.9336L74.793 12.5C75.1029 12.8828 75.4818 13.0742 75.9297 13.0742C76.2812 13.0742 76.5547 12.9753 76.75 12.7773C76.9479 12.5794 77.0469 12.3008 77.0469 11.9414V11.5781C76.7578 11.9115 76.3633 12.0781 75.8633 12.0781C75.3685 12.0781 74.9674 11.8789 74.6602 11.4805C74.3555 11.082 74.2031 10.5391 74.2031 9.85156ZM74.9297 9.93359C74.9297 10.4102 75.0273 10.7852 75.2227 11.0586C75.418 11.3294 75.6914 11.4648 76.043 11.4648C76.4987 11.4648 76.8333 11.2578 77.0469 10.8438V8.91406C76.8255 8.51042 76.4935 8.30859 76.0508 8.30859C75.6992 8.30859 75.4245 8.44531 75.2266 8.71875C75.0286 8.99219 74.9297 9.39714 74.9297 9.93359ZM79.5508 7.77344L79.5742 8.30469C79.8971 7.89844 80.319 7.69531 80.8398 7.69531C81.7331 7.69531 82.1836 8.19922 82.1914 9.20703V12H81.4688V9.20312C81.4661 8.89844 81.3958 8.67318 81.2578 8.52734C81.1224 8.38151 80.9102 8.30859 80.6211 8.30859C80.3867 8.30859 80.181 8.37109 80.0039 8.49609C79.8268 8.62109 79.6888 8.78516 79.5898 8.98828V12H78.8672V7.77344H79.5508Z" fill="#FEFEFE"/>
<path d="M85.3945 10.4727C85.3945 10.1992 85.4701 9.94792 85.6211 9.71875C85.7747 9.48958 86.0664 9.22266 86.4961 8.91797C86.2435 8.61068 86.0742 8.36328 85.9883 8.17578C85.9023 7.98828 85.8594 7.80208 85.8594 7.61719C85.8594 7.1849 85.987 6.84635 86.2422 6.60156C86.4974 6.35677 86.8438 6.23438 87.2812 6.23438C87.6719 6.23438 87.9948 6.34896 88.25 6.57812C88.5052 6.80469 88.6328 7.09115 88.6328 7.4375C88.6328 7.66667 88.5742 7.87891 88.457 8.07422C88.3424 8.26693 88.1406 8.47005 87.8516 8.68359L87.4336 8.99219L88.6992 10.5039C88.8763 10.1654 88.9648 9.78906 88.9648 9.375H89.6172C89.6172 10.0391 89.457 10.5898 89.1367 11.0273L89.9492 12H89.082L88.7031 11.5508C88.5104 11.7227 88.2839 11.8542 88.0234 11.9453C87.7656 12.0339 87.5026 12.0781 87.2344 12.0781C86.6797 12.0781 86.2344 11.931 85.8984 11.6367C85.5625 11.3424 85.3945 10.9544 85.3945 10.4727ZM87.2344 11.4883C87.6172 11.4883 87.9674 11.3424 88.2852 11.0508L86.8984 9.39062L86.7695 9.48438C86.3346 9.80469 86.1172 10.1341 86.1172 10.4727C86.1172 10.7799 86.2161 11.026 86.4141 11.2109C86.6146 11.3958 86.888 11.4883 87.2344 11.4883ZM86.582 7.59375C86.582 7.84375 86.7357 8.15625 87.043 8.53125L87.5039 8.20703C87.681 8.08203 87.8021 7.96354 87.8672 7.85156C87.9323 7.73698 87.9648 7.59896 87.9648 7.4375C87.9648 7.26302 87.8997 7.11849 87.7695 7.00391C87.6393 6.88672 87.4753 6.82812 87.2773 6.82812C87.0638 6.82812 86.8945 6.90104 86.7695 7.04688C86.6445 7.1901 86.582 7.3724 86.582 7.59375Z" fill="#FEFEFE"/>
<path d="M94.2422 11.4883C94.5 11.4883 94.7253 11.4102 94.918 11.2539C95.1107 11.0977 95.2174 10.9023 95.2383 10.668H95.9219C95.9089 10.9102 95.8255 11.1406 95.6719 11.3594C95.5182 11.5781 95.3125 11.7526 95.0547 11.8828C94.7995 12.013 94.5286 12.0781 94.2422 12.0781C93.6667 12.0781 93.2083 11.8867 92.8672 11.5039C92.5286 11.1185 92.3594 10.5924 92.3594 9.92578V9.80469C92.3594 9.39323 92.4349 9.02734 92.5859 8.70703C92.737 8.38672 92.9531 8.13802 93.2344 7.96094C93.5182 7.78385 93.8529 7.69531 94.2383 7.69531C94.7122 7.69531 95.1055 7.83724 95.418 8.12109C95.7331 8.40495 95.901 8.77344 95.9219 9.22656H95.2383C95.2174 8.95312 95.1133 8.72917 94.9258 8.55469C94.7409 8.3776 94.5117 8.28906 94.2383 8.28906C93.8711 8.28906 93.5859 8.42188 93.3828 8.6875C93.1823 8.95052 93.082 9.33203 93.082 9.83203V9.96875C93.082 10.4557 93.1823 10.8307 93.3828 11.0938C93.5833 11.3568 93.8698 11.4883 94.2422 11.4883ZM96.543 9.84766C96.543 9.43359 96.6237 9.0612 96.7852 8.73047C96.9492 8.39974 97.1758 8.14453 97.4648 7.96484C97.7565 7.78516 98.0885 7.69531 98.4609 7.69531C99.0365 7.69531 99.5013 7.89453 99.8555 8.29297C100.212 8.69141 100.391 9.22135 100.391 9.88281V9.93359C100.391 10.3451 100.311 10.7148 100.152 11.043C99.9961 11.3685 99.7708 11.6224 99.4766 11.8047C99.1849 11.987 98.849 12.0781 98.4688 12.0781C97.8958 12.0781 97.431 11.8789 97.0742 11.4805C96.7201 11.082 96.543 10.5547 96.543 9.89844V9.84766ZM97.2695 9.93359C97.2695 10.4023 97.3776 10.7786 97.5938 11.0625C97.8125 11.3464 98.1042 11.4883 98.4688 11.4883C98.8359 11.4883 99.1276 11.3451 99.3438 11.0586C99.5599 10.7695 99.668 10.3659 99.668 9.84766C99.668 9.38411 99.5573 9.00911 99.3359 8.72266C99.1172 8.43359 98.8255 8.28906 98.4609 8.28906C98.1042 8.28906 97.8164 8.43099 97.5977 8.71484C97.3789 8.9987 97.2695 9.40495 97.2695 9.93359ZM101.121 9.85156C101.121 9.20312 101.275 8.68229 101.582 8.28906C101.889 7.89323 102.292 7.69531 102.789 7.69531C103.284 7.69531 103.676 7.86458 103.965 8.20312V6H104.688V12H104.023L103.988 11.5469C103.699 11.901 103.297 12.0781 102.781 12.0781C102.292 12.0781 101.892 11.8776 101.582 11.4766C101.275 11.0755 101.121 10.5521 101.121 9.90625V9.85156ZM101.844 9.93359C101.844 10.4128 101.943 10.7878 102.141 11.0586C102.339 11.3294 102.612 11.4648 102.961 11.4648C103.419 11.4648 103.754 11.2591 103.965 10.8477V8.90625C103.749 8.50781 103.417 8.30859 102.969 8.30859C102.615 8.30859 102.339 8.44531 102.141 8.71875C101.943 8.99219 101.844 9.39714 101.844 9.93359ZM106.598 12H105.875V7.77344H106.598V12ZM105.816 6.65234C105.816 6.53516 105.852 6.4362 105.922 6.35547C105.995 6.27474 106.102 6.23438 106.242 6.23438C106.383 6.23438 106.49 6.27474 106.562 6.35547C106.635 6.4362 106.672 6.53516 106.672 6.65234C106.672 6.76953 106.635 6.86719 106.562 6.94531C106.49 7.02344 106.383 7.0625 106.242 7.0625C106.102 7.0625 105.995 7.02344 105.922 6.94531C105.852 6.86719 105.816 6.76953 105.816 6.65234ZM108.441 7.77344L108.465 8.30469C108.788 7.89844 109.21 7.69531 109.73 7.69531C110.624 7.69531 111.074 8.19922 111.082 9.20703V12H110.359V9.20312C110.357 8.89844 110.286 8.67318 110.148 8.52734C110.013 8.38151 109.801 8.30859 109.512 8.30859C109.277 8.30859 109.072 8.37109 108.895 8.49609C108.717 8.62109 108.579 8.78516 108.48 8.98828V12H107.758V7.77344H108.441ZM112 9.85156C112 9.19271 112.152 8.66927 112.457 8.28125C112.762 7.89062 113.165 7.69531 113.668 7.69531C114.184 7.69531 114.586 7.8776 114.875 8.24219L114.91 7.77344H115.57V11.8984C115.57 12.4453 115.408 12.8763 115.082 13.1914C114.759 13.5065 114.324 13.6641 113.777 13.6641C113.473 13.6641 113.174 13.599 112.883 13.4688C112.591 13.3385 112.368 13.1602 112.215 12.9336L112.59 12.5C112.9 12.8828 113.279 13.0742 113.727 13.0742C114.078 13.0742 114.352 12.9753 114.547 12.7773C114.745 12.5794 114.844 12.3008 114.844 11.9414V11.5781C114.555 11.9115 114.16 12.0781 113.66 12.0781C113.165 12.0781 112.764 11.8789 112.457 11.4805C112.152 11.082 112 10.5391 112 9.85156ZM112.727 9.93359C112.727 10.4102 112.824 10.7852 113.02 11.0586C113.215 11.3294 113.488 11.4648 113.84 11.4648C114.296 11.4648 114.63 11.2578 114.844 10.8438V8.91406C114.622 8.51042 114.29 8.30859 113.848 8.30859C113.496 8.30859 113.221 8.44531 113.023 8.71875C112.826 8.99219 112.727 9.39714 112.727 9.93359Z" fill="#FEFEFE"/>
<g clip-path="url(#clip0)">
<path d="M12.9902 5.94003C12.9668 5.40869 12.8809 5.0434 12.7578 4.72687C12.6308 4.39088 12.4355 4.09007 12.1795 3.84001C11.9295 3.58605 11.6267 3.38872 11.2946 3.26372C10.9762 3.14064 10.6128 3.05471 10.0815 3.03129C9.54617 3.00588 9.37624 3 8.01855 3C6.66086 3 6.49092 3.00588 5.9576 3.0293C5.42626 3.05273 5.06097 3.13873 4.74452 3.26174C4.40846 3.38872 4.10765 3.58407 3.85759 3.84001C3.60363 4.09007 3.40637 4.39287 3.2813 4.72496C3.15822 5.0434 3.07229 5.4067 3.04886 5.93804C3.02345 6.47335 3.01758 6.64329 3.01758 8.00098C3.01758 9.35866 3.02345 9.5286 3.04688 10.0619C3.07031 10.5933 3.15631 10.9586 3.27939 11.2751C3.40637 11.6111 3.60363 11.9119 3.85759 12.1619C4.10765 12.4159 4.41044 12.6132 4.74254 12.7382C5.06097 12.8613 5.42428 12.9472 5.95569 12.9707C6.48894 12.9942 6.65896 13 8.01664 13C9.37433 13 9.54427 12.9942 10.0776 12.9707C10.6089 12.9472 10.9742 12.8613 11.2907 12.7382C11.9627 12.4784 12.4941 11.9471 12.7539 11.2751C12.8769 10.9566 12.9629 10.5933 12.9863 10.0619C13.0098 9.5286 13.0156 9.35866 13.0156 8.00098C13.0156 6.64329 13.0136 6.47335 12.9902 5.94003ZM12.0897 10.0229C12.0682 10.5112 11.9861 10.775 11.9178 10.9508C11.7497 11.3864 11.404 11.7322 10.9683 11.9002C10.7925 11.9686 10.5269 12.0506 10.0404 12.0721C9.51298 12.0956 9.35479 12.1014 8.02053 12.1014C6.68627 12.1014 6.5261 12.0956 6.00056 12.0721C5.51219 12.0506 5.24846 11.9686 5.07265 11.9002C4.85586 11.8201 4.65852 11.6931 4.49835 11.5271C4.3323 11.3649 4.20532 11.1695 4.1252 10.9528C4.05683 10.7769 3.9748 10.5112 3.95335 10.0248C3.92985 9.49739 3.92405 9.33913 3.92405 8.00487C3.92405 6.67061 3.92985 6.51044 3.95335 5.98497C3.9748 5.4966 4.05683 5.23287 4.1252 5.05706C4.20532 4.84019 4.3323 4.64293 4.50033 4.48268C4.66241 4.31663 4.85776 4.18965 5.07463 4.10961C5.25045 4.04123 5.51616 3.9592 6.00255 3.93768C6.52999 3.91426 6.68826 3.90838 8.02244 3.90838C9.35868 3.90838 9.51687 3.91426 10.0424 3.93768C10.5308 3.9592 10.7945 4.04123 10.9703 4.10961C11.1871 4.18965 11.3845 4.31663 11.5446 4.48268C11.7107 4.64484 11.8377 4.84019 11.9178 5.05706C11.9861 5.23287 12.0682 5.4985 12.0897 5.98497C12.1131 6.51242 12.119 6.67061 12.119 8.00487C12.119 9.33913 12.1131 9.49541 12.0897 10.0229Z" fill="#FEFEFE"/>
<path d="M8.01857 5.43213C6.60037 5.43213 5.44971 6.58271 5.44971 8.00099C5.44971 9.41927 6.60037 10.5699 8.01857 10.5699C9.43684 10.5699 10.5874 9.41927 10.5874 8.00099C10.5874 6.58271 9.43684 5.43213 8.01857 5.43213ZM8.01857 9.66735C7.09851 9.66735 6.35221 8.92112 6.35221 8.00099C6.35221 7.08086 7.09851 6.33463 8.01857 6.33463C8.9387 6.33463 9.68492 7.08086 9.68492 8.00099C9.68492 8.92112 8.9387 9.66735 8.01857 9.66735V9.66735Z" fill="#FEFEFE"/>
<path d="M11.2887 5.33055C11.2887 5.66173 11.0202 5.93026 10.6889 5.93026C10.3578 5.93026 10.0892 5.66173 10.0892 5.33055C10.0892 4.99929 10.3578 4.73083 10.6889 4.73083C11.0202 4.73083 11.2887 4.99929 11.2887 5.33055V5.33055Z" fill="#FEFEFE"/>
</g>
<defs>
<clipPath id="clip0">
<rect width="10" height="10" fill="white" transform="translate(3 3)"/>
</clipPath>
</defs>
</svg>
