<svg width="20" height="20" viewBox="0 0 20 20" fill="none" xmlns="http://www.w3.org/2000/svg">
<path d="M17.6562 0H2.34375C1.05141 0 0 1.05141 0 2.34375V17.6562C0 18.9486 1.05141 20 2.34375 20H17.6562C18.9486 20 20 18.9486 20 17.6562V2.34375C20 1.05141 18.9486 0 17.6562 0ZM18.4375 17.6562C18.4375 18.087 18.087 18.4375 17.6562 18.4375H13.2031V12.0703H15.6168L16.0156 9.64844H13.2031V7.96875C13.2031 7.30566 13.7119 6.79688 14.375 6.79688H15.9766V4.375H14.375C12.3858 4.375 10.7821 5.98633 10.7821 7.97555V9.64844H8.4375V12.0703H10.7821V18.4375H2.34375C1.91297 18.4375 1.5625 18.087 1.5625 17.6562V2.34375C1.5625 1.91297 1.91297 1.5625 2.34375 1.5625H17.6562C18.087 1.5625 18.4375 1.91297 18.4375 2.34375V17.6562Z" fill="#FEFEFE"/>
</svg>
