<svg width="15" height="15" viewBox="0 0 15 15" fill="none" xmlns="http://www.w3.org/2000/svg">
<g clip-path="url(#clip0)">
<path d="M8.94491 7.49683L3.33344 13.1085C3.17893 13.2627 3.09393 13.4688 3.09393 13.6885C3.09393 13.9084 3.17893 14.1144 3.33344 14.2688L3.82515 14.7602C3.97942 14.9149 4.18564 15 4.40539 15C4.62515 15 4.83113 14.9149 4.98552 14.7602L11.6669 8.07902C11.8219 7.92415 11.9067 7.7172 11.9061 7.4972C11.9067 7.27622 11.822 7.06951 11.6669 6.91451L4.99173 0.239757C4.83734 0.0851227 4.63137 6.3598e-07 4.41149 6.55202e-07C4.19173 6.74414e-07 3.98576 0.0851228 3.83125 0.239757L3.33966 0.73122C3.01978 1.0511 3.01978 1.57183 3.33966 1.89159L8.94491 7.49683Z" fill="#FEFEFE"/>
</g>
<defs>
<clipPath id="clip0">
<rect width="15" height="15" fill="white" transform="translate(15 15) rotate(180)"/>
</clipPath>
</defs>
</svg>
