<svg width="20" height="20" viewBox="0 0 20 20" fill="none" xmlns="http://www.w3.org/2000/svg">
<g clip-path="url(#clip0)">
<path d="M20 4.02205C18.7419 4.08003 18.7694 4.0753 18.6272 4.0872L19.3722 1.95937C19.3722 1.95937 17.0465 2.81493 16.4569 2.96797C14.9084 1.57622 12.6068 1.51473 10.9613 2.52608C9.6138 3.35448 8.89053 4.77705 9.13177 6.4398C6.50925 6.07588 4.29962 4.83275 2.55508 2.73711L2.00333 2.07442L1.59103 2.83156C1.06995 3.78828 0.896912 4.88219 1.10367 5.9117C1.18851 6.33406 1.3327 6.73689 1.53244 7.11409L1.05911 6.93068L1.00296 7.72154C0.946045 8.52492 1.21353 9.46272 1.7186 10.2299C1.86081 10.446 2.04391 10.6833 2.276 10.9173L2.0314 10.8798L2.32986 11.786C2.72217 12.9767 3.53699 13.8978 4.59442 14.4099C3.53836 14.8581 2.68524 15.144 1.28296 15.6053L0 16.0271L1.185 16.6749C1.63681 16.922 3.23334 17.747 4.81079 17.9945C8.31726 18.5444 12.2652 18.0966 14.9229 15.703C17.1616 13.6868 17.8961 10.8189 17.7435 7.83446C17.7205 7.38264 17.8442 6.95143 18.092 6.62047C18.5884 5.95778 19.9969 4.02647 20 4.02205ZM17.155 5.91856C16.7435 6.46803 16.5373 7.16978 16.5742 7.89427C16.7282 10.9047 15.9091 13.2393 14.1396 14.8329C12.0724 16.6946 8.73825 17.4254 4.99222 16.8378C4.31381 16.7314 3.61267 16.4932 3.03238 16.2553C4.20807 15.8508 5.11597 15.4902 6.58218 14.7963L8.629 13.8275L6.36917 13.6828C5.28671 13.6136 4.38538 13.089 3.83133 12.2372C4.12552 12.2201 4.40918 12.1725 4.69162 12.0938L6.84692 11.4935L4.67361 10.9613C3.61755 10.7027 3.01559 10.0708 2.69653 9.58617C2.48703 9.26771 2.35016 8.94148 2.26807 8.64073C2.48596 8.69917 2.74002 8.74083 3.14972 8.78142L5.16128 8.98039L3.5675 7.73711C2.41913 6.84142 1.95892 5.49574 2.29629 4.2021C5.88028 7.91945 10.0883 7.64006 10.5119 7.73833C10.4187 6.83272 10.4163 6.83058 10.3918 6.74437C9.84939 4.8268 11.0382 3.85313 11.5744 3.52354C12.6944 2.83522 14.4722 2.73146 15.7036 3.86549C15.9695 4.11025 16.3292 4.20653 16.6658 4.12291C16.9679 4.04784 17.2159 3.96834 17.4586 3.88182L16.9533 5.325L17.5984 5.32545C17.4767 5.48872 17.3306 5.68419 17.155 5.91856Z" fill="#FEFEFE"/>
</g>
<defs>
<clipPath id="clip0">
<rect width="20" height="20" fill="white"/>
</clipPath>
</defs>
</svg>
