<svg width="20" height="20" viewBox="0 0 20 20" fill="none" xmlns="http://www.w3.org/2000/svg">
<g clip-path="url(#clip0)">
<path d="M9.99929 17.2653C9.99761 17.2653 9.99578 17.2653 9.99395 17.2653C9.39047 17.2612 4.05537 17.2125 2.54384 16.8038C1.48747 16.5198 0.653573 15.6868 0.368844 14.6303C-0.0266649 13.1455 -0.00148784 10.2867 0.00125875 10.0585C-0.00133525 9.83125 -0.0268175 6.94886 0.367623 5.45182C0.368081 5.45044 0.368386 5.44892 0.368844 5.44754C0.650369 4.40308 1.50303 3.54431 2.54124 3.25958C2.54384 3.25882 2.54658 3.25821 2.54918 3.25745C4.04362 2.86469 9.38925 2.81662 9.99395 2.8125H10.0048C10.6098 2.81662 15.9591 2.8653 17.4567 3.27469C18.5104 3.55789 19.3436 4.3898 19.6291 5.44495C20.0394 6.94306 20.0014 9.83171 19.9973 10.0755C20.0002 10.3157 20.0242 13.1488 19.631 14.6411C19.6307 14.6427 19.6302 14.644 19.6299 14.6454C19.345 15.7019 18.5113 16.5349 17.4537 16.8192C17.4523 16.8196 17.4508 16.8199 17.4494 16.8204C15.9551 17.213 10.6093 17.2611 10.0048 17.2653C10.003 17.2653 10.0011 17.2653 9.99929 17.2653ZM1.87794 5.85251C1.53065 7.17393 1.56346 10.0195 1.56376 10.0482V10.0688C1.55339 10.858 1.58985 13.1435 1.87809 14.2259C2.01786 14.7443 2.42909 15.1549 2.95064 15.2951C4.0659 15.5968 8.41116 15.6917 9.99929 15.7028C11.5916 15.6917 15.9432 15.5994 17.0502 15.3098C17.5701 15.1691 17.98 14.7598 18.1206 14.2409C18.4092 13.1426 18.4454 10.8682 18.4348 10.0841C18.4348 10.0758 18.4348 10.0676 18.435 10.0594C18.4493 9.26072 18.4211 6.94855 18.122 5.8574C18.1217 5.85633 18.1214 5.85526 18.1213 5.85419C17.9809 5.33356 17.5695 4.92295 17.048 4.78272C15.9435 4.48075 11.5912 4.38614 9.99929 4.375C8.4081 4.38614 4.06071 4.4783 2.95033 4.76761C2.4387 4.90952 2.01817 5.33478 1.87794 5.85251ZM18.8755 14.4422H18.876H18.8755ZM8.00786 13.2028V6.87485L13.4766 10.0389L8.00786 13.2028Z" fill="#FEFEFE"/>
<g clip-path="url(#clip1)">
<path d="M10.4885 18.957C10.4862 18.905 10.4778 18.8693 10.4657 18.8383C10.4533 18.8054 10.4342 18.776 10.4092 18.7515C10.3847 18.7267 10.3551 18.7073 10.3226 18.6951C10.2914 18.6831 10.2559 18.6747 10.2039 18.6724C10.1515 18.6699 10.1349 18.6693 10.002 18.6693C9.86918 18.6693 9.85255 18.6699 9.80037 18.6722C9.74838 18.6745 9.71264 18.6829 9.68167 18.6949C9.64879 18.7073 9.61936 18.7265 9.59489 18.7515C9.57004 18.776 9.55074 18.8056 9.5385 18.8381C9.52646 18.8693 9.51805 18.9048 9.51576 18.9568C9.51327 19.0092 9.5127 19.0258 9.5127 19.1586C9.5127 19.2915 9.51327 19.3081 9.51556 19.3603C9.51785 19.4123 9.52627 19.448 9.53831 19.479C9.55074 19.5119 9.57004 19.5413 9.59489 19.5658C9.61936 19.5906 9.64898 19.6099 9.68148 19.6222C9.71264 19.6342 9.74818 19.6426 9.80018 19.6449C9.85236 19.6472 9.86899 19.6478 10.0018 19.6478C10.1347 19.6478 10.1513 19.6472 10.2035 19.6449C10.2555 19.6426 10.2912 19.6342 10.3222 19.6222C10.388 19.5967 10.4399 19.5448 10.4654 19.479C10.4774 19.4478 10.4858 19.4123 10.4881 19.3603C10.4904 19.3081 10.491 19.2915 10.491 19.1586C10.491 19.0258 10.4908 19.0092 10.4885 18.957ZM10.4004 19.3565C10.3983 19.4043 10.3902 19.4301 10.3836 19.4473C10.3671 19.4899 10.3333 19.5237 10.2907 19.5402C10.2735 19.5469 10.2475 19.5549 10.1999 19.557C10.1483 19.5593 10.1328 19.5599 10.0022 19.5599C9.87167 19.5599 9.856 19.5593 9.80457 19.557C9.75679 19.5549 9.73098 19.5469 9.71378 19.5402C9.69257 19.5323 9.67326 19.5199 9.65758 19.5037C9.64134 19.4878 9.62891 19.4687 9.62107 19.4475C9.61438 19.4303 9.60636 19.4043 9.60426 19.3567C9.60196 19.3051 9.60139 19.2896 9.60139 19.159C9.60139 19.0285 9.60196 19.0128 9.60426 18.9614C9.60636 18.9136 9.61438 18.8878 9.62107 18.8706C9.62891 18.8494 9.64134 18.8301 9.65778 18.8144C9.67364 18.7981 9.69275 18.7857 9.71397 18.7779C9.73118 18.7712 9.75717 18.7632 9.80477 18.7611C9.85638 18.7588 9.87186 18.7582 10.0024 18.7582C10.1332 18.7582 10.1486 18.7588 10.2001 18.7611C10.2478 18.7632 10.2736 18.7712 10.2909 18.7779C10.3121 18.7857 10.3314 18.7981 10.347 18.8144C10.3633 18.8303 10.3757 18.8494 10.3836 18.8706C10.3902 18.8878 10.3983 18.9138 10.4004 18.9614C10.4027 19.013 10.4032 19.0285 10.4032 19.159C10.4032 19.2896 10.4027 19.3049 10.4004 19.3565Z" fill="#FEFEFE"/>
<path d="M10.0018 18.9073C9.86308 18.9073 9.75049 19.0199 9.75049 19.1587C9.75049 19.2975 9.86308 19.4101 10.0018 19.4101C10.1406 19.4101 10.2532 19.2975 10.2532 19.1587C10.2532 19.0199 10.1406 18.9073 10.0018 18.9073ZM10.0018 19.3218C9.91182 19.3218 9.8388 19.2487 9.8388 19.1587C9.8388 19.0687 9.91182 18.9957 10.0018 18.9957C10.0919 18.9957 10.1649 19.0687 10.1649 19.1587C10.1649 19.2487 10.0919 19.3218 10.0018 19.3218Z" fill="#FEFEFE"/>
<path d="M10.3217 18.8973C10.3217 18.9297 10.2954 18.956 10.263 18.956C10.2306 18.956 10.2043 18.9297 10.2043 18.8973C10.2043 18.8649 10.2306 18.8386 10.263 18.8386C10.2954 18.8386 10.3217 18.8649 10.3217 18.8973Z" fill="#FEFEFE"/>
</g>
</g>
<defs>
<clipPath id="clip0">
<rect width="20" height="20" fill="white"/>
</clipPath>
<clipPath id="clip1">
<rect width="0.978474" height="0.978472" fill="white" transform="translate(9.51074 18.6693)"/>
</clipPath>
</defs>
</svg>
